<?xml version="1.0" standalone="no"?>
<!DOCTYPE svg PUBLIC "-//W3C//DTD SVG 20010904//EN"
 "http://www.w3.org/TR/2001/REC-SVG-20010904/DTD/svg10.dtd">
<svg version="1.0" xmlns="http://www.w3.org/2000/svg"
 width="1024.000000pt" height="1024.000000pt" viewBox="0 0 1024.000000 1024.000000"
 preserveAspectRatio="xMidYMid meet">

<g transform="translate(0.000000,1024.000000) scale(0.100000,-0.100000)"
fill="#000000" stroke="none">
<path d="M4395 10197 c-14 -24 -25 -47 -25 -50 0 -3 -11 -23 -25 -43 -14 -20
-31 -58 -39 -84 -8 -26 -48 -113 -90 -194 -42 -81 -76 -153 -76 -161 0 -12
-84 -180 -100 -200 -5 -6 -25 -51 -45 -100 -19 -49 -55 -125 -79 -170 -24 -44
-58 -114 -75 -155 -38 -91 -79 -173 -108 -217 -12 -19 -25 -48 -28 -65 -4 -17
-37 -90 -74 -162 -37 -72 -78 -158 -91 -191 -13 -33 -51 -112 -83 -175 -33
-63 -71 -144 -84 -180 -14 -36 -34 -81 -46 -100 -29 -47 -107 -208 -107 -222
0 -6 -20 -49 -45 -97 -44 -85 -185 -379 -185 -387 0 -4 -56 -117 -99 -198 -17
-33 -31 -66 -31 -74 0 -12 -45 -105 -136 -282 -13 -25 -24 -51 -24 -57 0 -7
-27 -68 -61 -135 -33 -68 -80 -169 -105 -226 -25 -57 -55 -120 -67 -140 -13
-20 -29 -53 -36 -72 -27 -71 -122 -270 -141 -295 -4 -5 -13 -28 -20 -50 -7
-22 -48 -111 -91 -197 -44 -87 -79 -163 -79 -170 0 -7 -31 -75 -69 -150 -38
-75 -72 -147 -76 -160 -4 -13 -36 -84 -72 -158 -128 -263 -143 -295 -143 -303
0 -5 -38 -86 -85 -181 -47 -95 -85 -179 -85 -186 0 -8 -31 -76 -70 -151 -38
-76 -70 -143 -70 -150 0 -7 -30 -73 -66 -148 -37 -74 -77 -163 -90 -198 -13
-35 -34 -80 -47 -101 -27 -42 -97 -194 -97 -210 0 -5 -34 -78 -75 -161 -41
-83 -75 -155 -75 -162 0 -6 -13 -34 -28 -62 -16 -29 -50 -99 -76 -157 -27 -58
-64 -137 -82 -177 -19 -39 -34 -75 -34 -80 0 -4 -7 -21 -16 -38 -62 -112 -124
-242 -129 -268 -4 -18 -16 -46 -26 -63 -31 -50 -119 -232 -119 -244 0 -11 -93
-204 -109 -224 -4 -6 -18 -38 -31 -71 -13 -33 -60 -134 -104 -226 -45 -91 -89
-186 -100 -212 -10 -26 -28 -62 -41 -81 -12 -18 -37 -70 -54 -114 l-31 -81 0
-416 0 -415 711 2 711 3 39 90 c21 50 44 99 50 110 26 42 97 192 109 230 7 22
41 94 75 160 34 66 68 140 75 165 8 25 29 70 46 100 18 30 52 102 77 160 25
58 73 159 106 225 33 66 61 129 61 139 0 10 13 40 28 65 37 60 119 231 128
266 4 15 22 52 40 83 19 31 34 60 34 65 0 5 29 68 64 140 35 73 83 175 107
227 24 52 61 125 81 162 21 37 38 74 38 82 0 8 25 67 56 132 l55 117 2515 -6
c1383 -3 2514 -2 2514 2 0 21 -41 123 -63 157 -42 66 -101 177 -119 222 -9 24
-21 49 -26 55 -5 7 -13 23 -17 35 -4 13 -29 60 -56 105 -27 44 -49 85 -49 92
0 6 -27 63 -59 125 -71 137 -99 194 -159 320 -25 52 -55 109 -67 125 -12 17
-32 59 -45 94 -23 63 -39 96 -76 158 l-19 33 -1282 0 -1283 0 -21 -41 c-11
-23 -34 -60 -50 -82 -16 -22 -29 -48 -29 -57 0 -10 -25 -50 -55 -91 -30 -41
-60 -85 -67 -99 -7 -14 -31 -49 -53 -79 -22 -29 -45 -62 -51 -73 -7 -11 -25
-34 -42 -51 -16 -18 -42 -52 -57 -77 -15 -25 -55 -73 -89 -106 -34 -34 -79
-81 -102 -105 -85 -91 -200 -199 -211 -199 -6 0 -33 -22 -60 -49 -42 -42 -115
-95 -266 -193 -44 -28 -141 -78 -152 -78 -3 0 -43 -18 -88 -39 -45 -22 -111
-48 -147 -59 -66 -21 -150 -37 -150 -29 0 22 52 143 114 262 42 80 76 151 76
159 0 7 21 51 47 97 25 46 68 134 95 194 26 61 69 145 93 187 25 43 45 82 45
88 0 17 67 155 116 240 24 42 44 83 44 90 0 16 94 213 119 250 10 14 23 41 30
60 20 53 101 219 132 269 16 24 31 56 34 72 6 27 91 200 134 274 10 17 24 50
31 75 8 25 21 56 30 70 14 20 65 118 131 252 5 10 9 27 9 37 0 11 5 23 10 26
6 4 30 45 54 93 24 48 53 103 64 122 12 19 22 44 22 55 1 11 12 38 25 60 41
69 135 255 135 268 0 13 38 88 49 97 12 10 111 215 111 230 0 9 7 25 15 37 28
41 145 272 145 289 0 9 9 28 19 42 10 15 47 83 80 152 34 69 69 139 78 155 25
47 121 240 242 485 115 232 134 266 148 257 4 -3 22 -34 39 -69 93 -190 132
-267 162 -316 17 -30 32 -60 32 -67 0 -14 114 -237 141 -277 11 -14 19 -33 19
-43 0 -9 35 -82 79 -163 43 -82 89 -172 102 -202 12 -30 26 -59 30 -65 7 -10
58 -111 167 -330 33 -66 71 -140 86 -165 14 -25 26 -53 26 -63 0 -9 11 -34 23
-55 13 -20 40 -68 59 -107 19 -38 45 -86 57 -105 11 -19 21 -44 21 -55 0 -11
14 -42 29 -70 42 -72 115 -218 156 -309 19 -43 48 -100 63 -125 16 -25 48 -91
71 -146 24 -55 55 -120 71 -145 16 -25 36 -62 46 -82 l18 -38 973 0 c535 0
973 2 973 5 0 3 -20 38 -44 78 -25 41 -67 126 -95 191 -28 65 -65 138 -82 164
-18 26 -43 76 -56 112 -13 36 -55 126 -93 200 -38 74 -91 182 -118 240 -215
450 -273 569 -296 601 -9 13 -16 29 -16 37 0 13 -106 230 -148 305 -12 21 -22
45 -22 55 0 10 -17 47 -39 83 -21 37 -43 79 -48 95 -6 16 -24 51 -42 78 -17
28 -31 57 -31 67 0 16 -53 123 -126 256 -19 34 -34 67 -34 75 0 12 -42 100
-76 158 -8 14 -19 36 -24 50 -6 14 -19 39 -30 55 -10 17 -24 48 -30 69 -7 22
-43 99 -81 170 -38 72 -74 146 -79 166 -5 19 -27 64 -47 100 -21 36 -53 99
-72 140 -40 91 -141 300 -245 510 -42 85 -76 159 -76 163 0 8 -74 163 -245
512 -41 83 -86 179 -100 215 -15 36 -30 67 -33 70 -11 8 -112 218 -112 232 0
7 -24 56 -53 108 l-54 95 -781 3 -781 2 -26 -43z"/>
<path d="M7750 2692 c0 -4 25 -51 55 -104 30 -53 55 -102 55 -110 0 -13 94
-204 111 -224 5 -6 20 -39 33 -75 30 -77 77 -175 111 -229 14 -22 25 -44 25
-50 0 -17 74 -174 132 -280 14 -25 31 -63 38 -85 7 -22 43 -100 81 -174 38
-73 69 -137 69 -143 0 -14 89 -200 104 -218 8 -8 26 -46 40 -85 15 -38 56
-127 92 -198 35 -70 64 -132 64 -138 0 -13 103 -221 125 -251 8 -13 15 -29 15
-37 0 -13 58 -139 113 -248 l22 -43 202 0 203 0 0 80 0 80 320 0 320 0 0 -80
0 -80 80 0 80 0 0 669 0 669 -34 79 c-18 43 -47 105 -65 138 -17 33 -49 103
-72 155 -23 52 -49 106 -59 120 -16 24 -30 55 -101 220 -17 41 -37 82 -43 90
-14 18 -69 132 -95 198 -10 26 -51 112 -90 191 -39 79 -71 150 -71 157 0 12
-145 14 -930 14 -511 0 -930 -4 -930 -8z"/>
</g>
</svg>
